<?xml version="1.0" encoding="utf-8" ?>
<svg xmlns="http://www.w3.org/2000/svg" xmlns:xlink="http://www.w3.org/1999/xlink" width="407" height="407">
	<path fill="#221D62" d="M0 0L190.587 0L216.175 0L407 0L407 190.399L407 216.714L407 407L217.934 407L189.096 407L0 407L0 216.451L0 190.407L0 0ZM0 0L0 190.407C1.00564 187.949 0.929338 182.682 1.25133 179.842C1.71196 175.779 2.26271 171.691 3.0141 167.671Q3.83463 163.08 4.86541 158.532Q5.89619 153.983 7.13504 149.487Q8.37389 144.991 9.81819 140.556Q11.2625 136.122 12.9092 131.758Q14.5559 127.395 16.4015 123.112Q18.2471 118.829 20.2877 114.635Q22.3283 110.442 24.5596 106.346Q26.7908 102.251 29.2081 98.2625C31.3881 94.6858 33.647 90.3719 36.4929 87.3121C38.1513 87.2224 39.7709 86.8556 41.2742 86.1422C43.8795 84.9058 45.5375 82.9844 46.5158 80.2917C46.8838 78.3138 46.4484 76.5071 46.0447 74.5728C47.1552 72.14 55.5339 63.6707 58.0342 61.1321Q60.448 58.6506 62.9454 56.2533Q65.4429 53.856 68.021 51.5458Q70.5992 49.2355 73.255 47.015Q75.9108 44.7945 78.6413 42.6663Q81.3717 40.5382 84.1734 38.5049Q86.9752 36.4716 89.845 34.5355Q92.7148 32.5995 95.6493 30.763Q98.5838 28.9264 101.58 27.1916Q104.575 25.4567 107.629 23.8256Q110.682 22.1945 113.79 20.669Q116.897 19.1436 120.055 17.7255Q123.214 16.3075 126.418 14.9985Q129.623 13.6896 132.871 12.4913Q136.119 11.293 139.406 10.2067Q142.693 9.12049 146.015 8.14757Q149.337 7.17464 152.691 6.31619Q163.522 3.57276 174.574 1.932C178.027 1.42857 187.942 1.07569 190.411 0.0772531C190.47 0.0532155 190.528 0.025751 190.587 0L0 0ZM0 216.451L0 407L189.096 407C186.18 405.939 181.652 405.937 178.442 405.565Q173.267 405.011 168.155 404.037Q161.132 402.794 154.213 401.063Q147.294 399.332 140.513 397.122Q133.732 394.912 127.122 392.233Q120.512 389.554 114.106 386.419Q111.71 385.246 109.345 384.01Q106.981 382.775 104.649 381.478Q102.318 380.181 100.021 378.824Q97.7246 377.467 95.4642 376.05Q93.2038 374.633 90.9811 373.158Q88.7585 371.682 86.5752 370.149Q84.3919 368.616 82.2495 367.026Q80.107 365.436 78.0068 363.791Q75.9067 362.146 73.8502 360.447Q71.7938 358.747 69.7825 356.994Q67.7712 355.242 65.8064 353.437Q63.8417 351.632 61.9247 349.777Q60.0078 347.922 58.14 346.017Q56.2723 344.112 54.455 342.159Q52.6376 340.205 50.872 338.206Q49.1064 336.206 47.3937 334.16Q45.6809 332.115 44.0222 330.025Q42.3636 327.936 40.7601 325.804Q39.1566 323.671 37.6094 321.498Q36.0623 319.325 34.5724 317.112Q33.0826 314.899 31.6511 312.647Q30.2197 310.396 28.8476 308.108Q27.4755 305.82 26.1637 303.497Q24.8518 301.174 23.6012 298.818Q22.3506 296.461 21.162 294.073Q19.9734 291.684 18.8476 289.266Q17.7219 286.847 16.6598 284.4Q15.5976 281.953 14.5999 279.478Q13.6021 277.004 12.6694 274.505Q11.7366 272.005 10.8695 269.482Q10.0025 266.959 9.20165 264.415Q8.40084 261.87 7.66683 259.305Q3.99263 246.274 1.99279 232.884C1.46732 229.31 0.966876 219.085 0.0748714 216.64C0.0515849 216.576 0.0249571 216.514 0 216.451ZM216.175 0C216.234 0.0243958 216.292 0.0503805 216.351 0.0731873C219.02 1.09971 223.03 0.913445 225.895 1.18397Q230.482 1.65976 235.046 2.31738C243.08 3.49615 251.144 5.37828 258.949 7.58258Q261.577 8.33073 264.184 9.14886Q266.791 9.96699 269.376 10.8545Q271.96 11.742 274.52 12.6983Q277.079 13.6546 279.612 14.6789Q282.146 15.7033 284.651 16.795Q287.155 17.8867 289.63 19.045Q292.105 20.2032 294.548 21.4272Q296.991 22.6512 299.4 23.9401Q301.81 25.2289 304.184 26.5817Q306.558 27.9345 308.895 29.3503Q311.232 30.7661 313.531 32.2438Q315.829 33.7215 318.087 35.2602Q320.345 36.7988 322.561 38.3973Q324.777 39.9957 326.95 41.6528Q329.123 43.3099 331.25 45.0245Q333.378 46.7391 335.459 48.5099Q337.54 50.2808 339.573 52.1066Q341.606 53.9324 343.589 55.812Q345.572 57.6915 347.505 59.6234Q349.437 61.5552 351.317 63.538Q353.197 65.5209 355.024 67.5532Q356.85 69.5856 358.622 71.666Q360.393 73.7465 362.108 75.8736Q363.823 78.0006 365.481 80.1728Q367.139 82.3449 368.738 84.5606Q370.337 86.7763 371.876 89.0339Q373.416 91.2916 374.894 93.5895Q376.373 95.8875 377.789 98.2242Q379.206 100.561 380.559 102.935Q381.912 105.308 383.202 107.717Q384.492 110.126 385.716 112.569Q386.941 115.012 388.1 117.486Q391.018 123.744 393.504 130.187Q395.99 136.629 398.032 143.226Q400.074 149.823 401.662 156.543Q403.25 163.263 404.378 170.076Q405.355 175.83 405.914 181.64C406.198 184.422 406.183 187.74 407 190.399L407 0L216.175 0ZM407 216.714L406.935 217.005C405.984 221.413 405.861 226.269 405.304 230.773Q403.878 241.773 401.195 252.535Q400.62 254.833 399.992 257.117Q399.364 259.402 398.683 261.671Q398.002 263.94 397.268 266.193Q396.535 268.445 395.75 270.681Q394.964 272.916 394.128 275.132Q393.291 277.348 392.403 279.545Q391.515 281.741 390.576 283.916Q389.637 286.092 388.649 288.244Q387.66 290.397 386.622 292.527Q385.583 294.656 384.496 296.761Q383.408 298.866 382.273 300.945Q381.137 303.024 379.953 305.076Q378.769 307.128 377.538 309.152Q376.307 311.176 375.03 313.172Q373.752 315.167 372.429 317.132Q371.106 319.097 369.737 321.031Q368.369 322.964 366.956 324.866Q365.543 326.768 364.086 328.636Q362.63 330.504 361.13 332.338Q359.63 334.173 358.089 335.971Q356.547 337.77 354.964 339.533Q353.382 341.296 351.758 343.021Q350.135 344.747 348.472 346.434Q346.81 348.122 345.108 349.771Q343.407 351.419 341.668 353.028Q339.928 354.636 338.152 356.204Q336.376 357.772 334.565 359.299Q332.753 360.825 330.906 362.309Q329.06 363.793 327.179 365.234Q325.298 366.675 323.385 368.072Q321.472 369.469 319.526 370.821Q317.581 372.173 315.605 373.48Q311.516 376.181 307.301 378.681Q303.087 381.182 298.756 383.476Q294.426 385.77 289.99 387.852Q285.554 389.935 281.022 391.801Q276.491 393.666 271.875 395.311Q267.258 396.956 262.568 398.376Q257.878 399.797 253.125 400.989Q248.371 402.181 243.566 403.142C238.889 404.076 234.223 404.888 229.489 405.48C225.826 405.937 221.375 405.861 217.934 407L407 407L407 216.714Z"/>
	<path fill="#827CA7" d="M275.511 201.802Q278.831 201.72 282.151 201.767C281.292 204.502 279.502 206.645 276.962 207.996C276.467 208.26 275.954 208.373 275.402 208.449C275.536 206.243 275.491 204.012 275.511 201.802Z"/>
	<path fill="#7E6BA1" d="M282.702 194.502C284.948 194.497 287.239 194.589 289.478 194.412C288.513 197.114 286.484 199.847 283.73 200.949C283.378 201.09 282.991 201.149 282.616 201.193C282.56 198.971 282.661 196.725 282.702 194.502Z"/>
	<path fill="#7E6BA1" d="M108.84 145.032C108.89 144.641 108.953 144.309 109.113 143.946C110.427 140.963 112.674 139.211 115.646 138.038C115.605 139.901 115.937 143.328 115.329 144.976L108.84 145.032Z"/>
	<path fill="#827CA7" d="M101.235 152.436C101.554 151.931 101.74 151.28 102.032 150.742C103.471 148.088 105.669 146.053 108.597 145.217C108.312 147.515 108.232 149.772 108.193 152.085C105.871 152.132 103.545 152.162 101.235 152.436Z"/>
	<path fill="#D38808" d="M327.416 76.3427C327.699 76.1173 327.999 75.8887 328.377 75.87C330.647 75.7572 332.764 76.4556 335.438 75.9956C338.187 75.5226 340.183 73.3603 342.641 72.223L343.562 72.765C342.087 75.4647 339.851 77.4127 336.871 78.2949C334.334 79.0458 331.536 78.9132 329.193 77.6255C328.537 77.2648 327.97 76.8434 327.416 76.3427Z"/>
	<path fill="#D38808" d="M294.09 104.551C296.657 102.768 299.284 102.137 302.391 102.687C305.875 103.304 309.161 105.316 311.149 108.267C312.615 110.443 313.085 112.739 312.572 115.318L312.525 115.544C312.525 114.862 312.522 114.281 312.324 113.625C310.471 111.865 309.5 109.645 307.346 108.08C304.176 105.777 300.805 105.404 297.023 105.342C296.526 105.334 295.432 105.415 294.993 105.22C294.706 105.092 294.353 104.746 294.09 104.551Z"/>
	<path fill="#35602C" d="M31.4605 195.564C31.5839 193.934 32.438 192.873 33.6518 191.851C36.186 189.717 40.3113 189.003 43.5288 189.321C47.5439 189.717 51.7059 191.685 54.275 194.842C55.5568 196.418 56.8192 198.911 56.541 201.003C56.4802 201.461 56.3387 201.915 56.2038 202.355C55.8685 201.366 55.3848 200.463 54.8014 199.599C52.3043 195.901 48.1861 193.767 43.8716 192.986C39.3567 192.17 35.2155 192.924 31.4605 195.564Z"/>
	<path fill="#35602C" d="M57.6945 148.008C57.3055 147.914 56.9067 147.814 56.5362 147.661C54.795 146.942 53.2732 144.38 52.621 142.697C50.8951 138.242 51.4695 132.966 53.4092 128.677C55.2777 124.545 58.8451 120.771 63.14 119.163C65.7621 118.181 68.1542 118.049 70.7308 119.194C65.2429 120.576 61.4701 123.423 58.5564 128.316C55.8616 132.84 54.5212 138.455 55.8391 143.642C56.2293 145.177 56.9339 146.624 57.6945 148.008Z"/>
	<path fill="#F49A19" d="M327.416 76.3427Q326.878 75.7157 326.425 75.0247C325.455 73.5442 324.905 71.6627 325.314 69.9094C325.823 67.7238 327.659 66.0425 329.53 64.9509C332.374 63.2914 336.097 62.4871 339.324 63.3626C341.016 63.8217 342.568 64.8064 343.408 66.3851C344.508 68.4539 344.184 70.6318 343.562 72.765L342.641 72.223C340.183 73.3603 338.187 75.5226 335.438 75.9956C332.764 76.4556 330.647 75.7572 328.377 75.87C327.999 75.8887 327.699 76.1173 327.416 76.3427Z"/>
	<path fill="#F49A19" d="M294.09 104.551C294.353 104.746 294.706 105.092 294.993 105.22C295.432 105.415 296.526 105.334 297.023 105.342C300.805 105.404 304.176 105.777 307.346 108.08C309.5 109.645 310.471 111.865 312.324 113.625C312.522 114.281 312.525 114.862 312.525 115.544C312.138 116.866 311.669 118.169 310.697 119.184C309.161 120.791 307.019 121.513 304.838 121.577C300.929 121.692 296.621 119.92 293.812 117.226C292.094 115.579 290.665 113.31 290.696 110.857C290.73 108.221 292.279 106.269 294.09 104.551Z"/>
	<path fill="#5FCE44" d="M31.4605 195.564C35.2155 192.924 39.3567 192.17 43.8716 192.986C48.1861 193.767 52.3043 195.901 54.8014 199.599C55.3848 200.463 55.8685 201.366 56.2038 202.355C56.3753 204.005 55.8447 205.93 54.9177 207.289C53.4981 209.371 51.0707 210.432 48.6745 210.908C43.9831 211.84 38.6754 210.661 34.7284 207.986C32.5145 206.486 30.251 204.223 29.7837 201.479C29.3963 199.205 30.2069 197.379 31.4605 195.564Z"/>
	<path fill="#5FCE44" d="M70.7308 119.194C73.6102 119.807 75.8413 120.776 77.4827 123.328C79.7056 126.784 79.6856 131.253 78.7746 135.123C77.5073 140.506 74.2197 146.005 69.4185 148.94C67.1704 150.314 64.5076 151.066 61.8959 150.406C60.361 150.018 58.8278 149.104 57.6945 148.008C56.9339 146.624 56.2293 145.177 55.8391 143.642C54.5212 138.455 55.8616 132.84 58.5564 128.316C61.4701 123.423 65.2429 120.576 70.7308 119.194Z"/>
	<path fill="#5FCE44" d="M258.722 79.9316C264.749 77.2357 271.747 75.9034 278.133 78.282C280.61 79.2048 282.855 80.7548 283.967 83.2269C284.62 84.6798 284.8 86.182 284.675 87.7594C285.207 90.3576 285.1 92.4674 283.609 94.7311C281.122 98.5049 275.969 100.679 271.701 101.525C267.62 102.334 263.653 101.992 259.614 101.142C258.194 100.553 256.759 99.7861 255.564 98.8136C253.476 97.1153 252.979 95.1316 252.704 92.5721C252.011 91.023 251.686 89.4833 252.007 87.7881C252.67 84.2822 255.946 81.7892 258.722 79.9316Z"/>
	<path fill="#35602C" d="M252.704 92.5721C254.272 94.7974 256.275 96.2277 258.823 97.1777C264.42 99.2642 271.294 98.5722 276.635 96.0439C280.32 94.299 283.295 91.6662 284.675 87.7594C285.207 90.3576 285.1 92.4674 283.609 94.7311C281.122 98.5049 275.969 100.679 271.701 101.525C267.62 102.334 263.653 101.992 259.614 101.142C258.194 100.553 256.759 99.7861 255.564 98.8136C253.476 97.1153 252.979 95.1316 252.704 92.5721Z"/>
	<path fill="#F49A19" d="M77.2184 245.769C74.957 241.002 73.951 236.163 74.6115 230.887C75.1286 226.756 76.7177 221.987 80.1793 219.39C83.2786 217.064 86.3213 217.517 89.8968 218.067C93.6445 219.479 96.3388 222.273 97.9819 225.903C98.9361 228.011 99.3901 230.155 99.8328 232.41C100.043 237.982 99.1722 243.644 95.2377 247.88C93.8793 249.343 91.9261 250.746 89.951 251.18C88.1557 251.538 86.2609 251.81 84.4418 251.498C80.9905 250.904 79.107 248.466 77.2184 245.769Z"/>
	<path fill="#D38808" d="M89.8968 218.067C93.6445 219.479 96.3388 222.273 97.9819 225.903C98.9361 228.011 99.3901 230.155 99.8328 232.41C100.043 237.982 99.1722 243.644 95.2377 247.88C93.8793 249.343 91.9261 250.746 89.951 251.18C89.9875 251.127 90.032 251.079 90.0605 251.022C90.7679 249.587 91.6955 248.491 92.577 247.168C94.9131 243.661 95.9774 239.632 96.0014 235.439C96.0275 230.879 94.8836 225.458 92.1027 221.737C91.6006 221.065 90.8975 220.602 90.3721 219.97C89.8048 219.287 89.8745 218.896 89.8968 218.067Z"/>
	<path fill="#35602C" d="M381.277 274.441C383.379 275.562 384.459 277.389 385.154 279.601C386.687 284.488 385.569 289.97 383.218 294.405C379.139 302.099 369.996 309.108 361.69 311.65C359.298 312.383 353.687 313.801 351.356 312.283C351.09 312.11 351.112 312.115 350.926 311.922C350.753 309.642 350.031 307.416 349.897 305.083C349.531 298.685 352.523 292.543 356.69 287.864C361.448 282.521 368.239 277.045 375.215 275.201C377.301 274.65 379.15 274.571 381.277 274.441Z"/>
	<path fill="#4D4982" d="M115.862 137.834C116.903 135.114 118.651 132.716 121.386 131.518C122.876 130.865 124.385 130.723 125.993 130.674C135.259 130.393 144.606 130.676 153.881 130.677L210.178 130.679L260.878 130.679C269.893 130.678 279.006 130.4 288.009 130.742C289.017 130.781 289.936 131.061 290.865 131.434C293.347 132.43 294.982 134.026 295.999 136.499C296.586 137.927 296.829 139.473 296.932 141.006C297.367 147.516 296.986 154.256 296.996 160.797C297.008 168.458 297.387 176.332 296.948 183.97C296.86 185.501 296.705 187.208 296.067 188.62C295.105 190.75 292.832 193.174 290.602 193.974C290.367 194.058 290.129 194.106 289.886 194.155C289.845 194.163 289.804 194.173 289.763 194.182L289.478 194.412C287.239 194.589 284.948 194.497 282.702 194.502C282.472 184.957 282.686 175.363 282.696 165.811C282.7 161.715 283.184 156.939 282.391 152.933C282.003 150.972 280.801 148.917 279.369 147.531C277.701 145.917 275.668 145.347 273.426 145.136C267.725 144.6 261.664 145.001 255.926 145.008L222.627 145.008L115.504 145.012L115.329 144.976C115.937 143.328 115.605 139.901 115.646 138.038L115.862 137.834Z"/>
	<path fill="#827CA7" d="M115.862 137.834Q135.333 137.688 154.805 137.762L223.711 137.768L262.058 137.772C268.119 137.773 274.605 137.292 280.623 137.85C282.876 138.059 284.867 138.8 286.52 140.381C289.414 143.148 289.719 146.064 289.759 149.879C289.914 164.637 289.442 179.43 289.763 194.182L289.478 194.412C287.239 194.589 284.948 194.497 282.702 194.502C282.472 184.957 282.686 175.363 282.696 165.811C282.7 161.715 283.184 156.939 282.391 152.933C282.003 150.972 280.801 148.917 279.369 147.531C277.701 145.917 275.668 145.347 273.426 145.136C267.725 144.6 261.664 145.001 255.926 145.008L222.627 145.008L115.504 145.012L115.329 144.976C115.937 143.328 115.605 139.901 115.646 138.038L115.862 137.834Z"/>
	<path fill="#4D4982" d="M259.614 101.142C259.888 105.206 260.17 113.942 259.239 117.735C258.575 120.438 257.067 122.523 254.662 123.945C252.807 125.042 250.932 125.259 248.814 125.355C240.157 125.748 231.319 125.354 222.645 125.353L169.536 125.357L137.227 125.379C132.736 125.384 122.44 125.973 118.762 124.919C116.284 124.209 114.069 122.047 112.935 119.78C112.484 118.877 112.099 117.841 111.963 116.839C111.327 112.151 111.754 106.894 111.758 102.141C111.763 96.0527 111.47 89.8184 111.857 83.7546C111.926 82.6714 112.062 81.6771 112.413 80.6438C113.215 78.2789 115.067 75.922 117.373 74.8722C119.049 74.1089 120.876 73.9232 122.695 73.8338C130.031 73.4735 137.496 73.7705 144.845 73.7744L186.213 73.7762L227.881 73.7761C234.828 73.775 241.912 73.4587 248.844 73.7904C250.465 73.8679 252.1 74.1176 253.614 74.7225C256.136 75.7305 257.666 77.4758 258.722 79.9316C255.946 81.7892 252.67 84.2822 252.007 87.7881C251.686 89.4833 252.011 91.023 252.704 92.5721C252.979 95.1316 253.476 97.1153 255.564 98.8136C256.759 99.7861 258.194 100.553 259.614 101.142Z"/>
	<path fill="#9B6A49" d="M148.847 104.98C149.299 105.826 149.842 106.578 150.339 107.391C150.841 108.511 150.958 109.487 151.059 110.69C150.617 111.164 150.174 111.735 149.683 112.152C146.689 115.183 144.423 116.915 140.199 117.914C139.365 116.276 141.057 114.261 140.802 112.465C140.301 111.798 139.953 111.289 139.786 110.46C139.773 110.396 139.763 110.332 139.751 110.267C139.928 110.382 140.411 110.781 140.586 110.809C141.129 110.898 145.529 105.875 146.774 105.286C147.379 105 148.187 105.01 148.847 104.98Z"/>
	<path fill="#714E41" d="M150.339 107.391C150.841 108.511 150.958 109.487 151.059 110.69C150.617 111.164 150.174 111.735 149.683 112.152C148.958 110.588 149.84 108.924 150.339 107.391Z"/>
	<path fill="#9F714B" d="M141.193 105.068C141.37 105.486 141.55 105.609 141.378 106.055C140.793 107.574 138.75 107.944 139.615 109.986C139.655 110.082 139.706 110.173 139.751 110.267C139.763 110.332 139.773 110.396 139.786 110.46C139.953 111.289 140.301 111.798 140.802 112.465C141.057 114.261 139.365 116.276 140.199 117.914C138.682 118.312 137.132 118.423 135.566 118.375C129.947 118.205 125.737 115.491 121.983 111.532C123.01 110.154 123.742 109.12 125.166 108.137C125.886 107.799 126.322 107.496 127.141 107.547L127.303 107.755L127.531 107.841C128.617 108.268 130.215 109.674 131.326 109.271C131.37 108.99 131.421 108.714 131.473 108.435C131.619 107.655 131.919 107.351 132.495 106.813C134.928 107.519 135.985 106.969 138.286 106.03C139.551 106.045 140.144 105.684 141.193 105.068Z"/>
	<path fill="#9B6A49" d="M133.379 108.091C134.135 108.147 134.487 108.237 135.1 108.691C135.368 109.345 135.415 109.306 135.148 109.951C134.485 109.906 133.888 109.826 133.242 109.665C132.917 108.977 133.135 108.79 133.379 108.091Z"/>
	<path fill="#714E41" d="M127.303 107.755L127.531 107.841C128.617 108.268 130.215 109.674 131.326 109.271L131.275 109.473C131.185 109.539 130.998 109.674 130.923 109.739C130.556 110.06 130.377 110.23 129.884 110.361C129.142 110.558 128.621 110.233 127.998 109.87C127.401 109.193 127.388 108.632 127.303 107.755Z"/>
	<path fill="#7E6BA1" d="M159.248 86.0138L201.133 86.0232L201.033 91.4996L159.245 91.4881L159.248 86.0138Z"/>
	<path fill="#7E6BA1" d="M159.242 97.0024C175.264 97.2985 191.357 97.0099 207.387 97.0163C207.281 98.8393 207.314 100.673 207.311 102.499L159.237 102.49L159.242 97.0024Z"/>
	<path fill="#7E6BA1" d="M159.247 108.008C176.863 108.215 194.504 107.998 212.123 108.018L212.037 113.5L159.244 113.493L159.247 108.008Z"/>
	<path fill="#577896" d="M121.983 111.532C120.03 109.002 118.725 106.171 118.226 103.001C117.474 98.2227 118.76 93.005 121.664 89.1356C124.432 85.4452 128.648 82.815 133.239 82.1985C138.323 81.5159 143.434 82.5674 147.512 85.7505C151.248 88.6674 153.908 93.3778 154.415 98.1025C154.876 102.402 153.805 107.284 151.059 110.69C150.958 109.487 150.841 108.511 150.339 107.391C149.842 106.578 149.299 105.826 148.847 104.98C148.6 104.49 148.262 104.142 147.902 103.732C148.192 103.077 148.729 102.447 149.139 101.855C148.318 99.4151 147.586 97.4173 145.575 95.6744C145.527 95.6332 145.478 95.5936 145.43 95.5532C145.359 95.2878 145.362 95.3785 145.369 95.1252C145.371 95.0463 145.376 94.9675 145.38 94.8886C145.387 94.7074 145.388 94.5257 145.405 94.3452C145.421 94.1847 145.456 94.0262 145.47 93.8655C145.683 91.3941 143.483 87.0766 141.851 85.2482C139.592 82.7193 137.357 83.7198 134.423 83.5205C133.522 83.9614 133.322 84.6416 132.751 85.4164C130.972 86.4123 130.09 88.863 129.558 90.721C129.396 91.2878 129.328 91.7629 129.375 92.3548C129.362 92.4153 129.349 92.4762 129.335 92.5365C128.65 95.433 126.414 97.2569 128.211 100.262L128.705 101.073C127.031 102.217 124.955 103.392 124.617 105.595C124.473 106.53 124.807 107.293 125.166 108.137C123.742 109.12 123.01 110.154 121.983 111.532Z"/>
	<path fill="#3B3753" d="M132.751 85.4164C133.322 84.6416 133.522 83.9614 134.423 83.5205C137.357 83.7198 139.592 82.7193 141.851 85.2482C143.483 87.0766 145.683 91.3941 145.47 93.8655C145.456 94.0262 145.421 94.1847 145.405 94.3452C145.388 94.5257 145.387 94.7074 145.38 94.8886C145.376 94.9675 145.371 95.0463 145.369 95.1252C145.362 95.3785 145.359 95.2878 145.43 95.5532C145.478 95.5936 145.527 95.6332 145.575 95.6744C147.586 97.4173 148.318 99.4151 149.139 101.855C148.729 102.447 148.192 103.077 147.902 103.732C148.262 104.142 148.6 104.49 148.847 104.98C148.187 105.01 147.379 105 146.774 105.286C145.529 105.875 141.129 110.898 140.586 110.809C140.411 110.781 139.928 110.382 139.751 110.267C139.706 110.173 139.655 110.082 139.615 109.986C138.75 107.944 140.793 107.574 141.378 106.055C141.55 105.609 141.37 105.486 141.193 105.068C140.144 105.684 139.551 106.045 138.286 106.03C135.985 106.969 134.928 107.519 132.495 106.813C131.919 107.351 131.619 107.655 131.473 108.435C131.421 108.714 131.37 108.99 131.326 109.271C130.215 109.674 128.617 108.268 127.531 107.841L127.303 107.755L127.141 107.547C126.322 107.496 125.886 107.799 125.166 108.137C124.807 107.293 124.473 106.53 124.617 105.595C124.955 103.392 127.031 102.217 128.705 101.073L128.211 100.262C126.414 97.2569 128.65 95.433 129.335 92.5365C129.349 92.4762 129.362 92.4153 129.375 92.3548C129.328 91.7629 129.396 91.2878 129.558 90.721C130.09 88.863 130.972 86.4123 132.751 85.4164Z"/>
	<path fill="#7C5A69" d="M130.404 92.4361L130.804 92.1962L131.519 92.753L132.296 94.6644C133.077 94.6744 133.864 94.7049 134.645 94.6637L135.557 95.5239L134.856 95.9471C134.787 96.3807 134.832 96.6223 134.962 97.04C134.545 97.1246 134.337 97.1677 133.97 97.3973C133.903 97.3323 133.841 97.2627 133.77 97.2023C133.242 96.7537 132.906 96.4345 132.217 96.4689L131.828 97.041C131.436 96.6164 131.022 96.2153 130.61 95.8102L129.949 95.2585C129.61 94.5017 129.779 94.0172 129.972 93.2342L130.404 92.4361Z"/>
	<path fill="#8C6E7E" d="M129.972 93.2342C130.697 93.5244 130.714 93.6575 131.03 94.3609C131.185 94.7057 131.318 95.0627 131.454 95.4153L130.61 95.8102L129.949 95.2585C129.61 94.5017 129.779 94.0172 129.972 93.2342Z"/>
	<path fill="#7B4C63" d="M134.645 94.6637C135.446 94.1758 136.418 93.9805 137.342 93.9226C137.951 94.4245 137.955 94.7728 138.181 95.515L138.55 95.6508C139.179 95.2759 139.87 94.7829 140.613 94.7116C140.746 94.6988 140.879 94.6949 141.012 94.6866C140.776 95.4471 140.571 96.2307 140.22 96.9475C139.752 97.7652 139.303 98.5461 138.694 99.2718L137.564 99.4585L137.184 98.6773L136.311 98.4188C135.476 98.1384 134.734 97.8372 133.97 97.3973C134.337 97.1677 134.545 97.1246 134.962 97.04C134.832 96.6223 134.787 96.3807 134.856 95.9471L135.557 95.5239L134.645 94.6637Z"/>
	<path fill="#8C6E7E" d="M134.962 97.04C134.832 96.6223 134.787 96.3807 134.856 95.9471L135.557 95.5239C136.205 95.8766 136.583 95.9681 136.94 96.6261C136.345 97.146 135.741 97.0874 134.962 97.04Z"/>
	<path fill="#8C6E7E" d="M136.311 98.4188C137.812 98.2394 138.296 96.5763 139.837 96.5232L140.22 96.9475C139.752 97.7652 139.303 98.5461 138.694 99.2718L137.564 99.4585L137.184 98.6773L136.311 98.4188Z"/>
	<path fill="#7C5A69" d="M131.828 97.041L132.217 96.4689C132.906 96.4345 133.242 96.7537 133.77 97.2023C133.841 97.2627 133.903 97.3323 133.97 97.3973C134.734 97.8372 135.476 98.1384 136.311 98.4188L137.184 98.6773L137.564 99.4585L138.694 99.2718C137.61 100.566 137.43 102.41 136.992 103.995C137.425 104.622 138.024 105.316 138.286 106.03C135.985 106.969 134.928 107.519 132.495 106.813C133.028 106.56 133.242 106.372 133.601 105.926C134.184 103.981 132.995 101.658 132.346 99.8198L132.35 98.2581L131.828 97.041Z"/>
	<path fill="#827CA7" d="M131.828 97.041L132.217 96.4689C132.906 96.4345 133.242 96.7537 133.77 97.2023C133.841 97.2627 133.903 97.3323 133.97 97.3973C134.734 97.8372 135.476 98.1384 136.311 98.4188L137.184 98.6773L137.564 99.4585C137.171 99.5734 136.772 99.691 136.368 99.7541C134.775 100.003 133.589 99.099 132.35 98.2581L131.828 97.041Z"/>
	<path fill="#827CA7" d="M133.455 86.1438C135.333 85.5879 137.01 85.6345 138.767 86.5998C139.86 87.2003 140.374 87.8725 141.011 88.9046C141.371 90.377 141.361 91.8113 141.446 93.3139L141.012 94.6866C140.879 94.6949 140.746 94.6988 140.613 94.7116C139.87 94.7829 139.179 95.2759 138.55 95.6508L138.181 95.515C137.955 94.7728 137.951 94.4245 137.342 93.9226C136.418 93.9805 135.446 94.1758 134.645 94.6637C133.864 94.7049 133.077 94.6744 132.296 94.6644L131.519 92.753L130.804 92.1962C131.142 90.7591 131.699 89.3889 132.274 88.0342C132.705 87.429 133.074 86.7809 133.455 86.1438Z"/>
	<path fill="#7C5A69" d="M141.011 88.9046C141.371 90.377 141.361 91.8113 141.446 93.3139C141.201 93.2213 140.868 93.2045 140.607 93.1645C139.479 92.919 137.968 92.8414 137.113 92.0878C137.089 91.4405 137.184 91.1203 137.638 90.6203C138.209 89.991 139.019 90.0166 139.811 89.949C140.525 89.7195 140.58 89.497 141.011 88.9046Z"/>
	<path fill="#8C6E7E" d="M132.274 88.0342C133.424 89.4566 135.341 88.839 136.098 90.7502C135.855 91.3119 135.646 91.5187 135.071 91.781C134.054 92.2448 133.199 92.0708 132.165 91.8401C131.794 92.1348 131.68 92.3085 131.519 92.753L130.804 92.1962C131.142 90.7591 131.699 89.3889 132.274 88.0342Z"/>
	<path fill="#5FCE44" d="M214.273 216.089C212.515 213.725 209.836 210.312 210.172 207.181C210.258 206.382 210.612 205.67 211.263 205.189C212.551 204.237 214.472 204.225 215.989 204.49C223.744 205.846 235.369 215.913 239.951 216.145L239.554 216.395C240.277 217.536 243.692 219.098 244.947 219.836C248.626 220.86 260.064 227.44 263.636 229.952C267.463 225.988 270.583 222.196 276.473 222.061C278.419 222.017 280.583 222.163 282.505 222.48C285.313 219.686 288.342 217.292 292.486 217.34C294.266 217.361 295.965 217.725 297.659 218.243C299.483 216.47 301.508 215.661 303.983 215.238C311.227 218.12 323.222 230.288 329.363 235.959C336.375 242.436 343.331 249.021 350.432 255.397C353.238 257.916 356.919 259.081 360.094 261.016C362.987 262.779 365.734 264.797 368.614 266.59C372.812 269.205 377.195 271.655 381.277 274.441C379.15 274.571 377.301 274.65 375.215 275.201C368.239 277.045 361.448 282.521 356.69 287.864C352.523 292.543 349.531 298.685 349.897 305.083C350.031 307.416 350.753 309.642 350.926 311.922C346.214 308.51 340.244 304.037 334.464 302.871C330.027 301.976 322.622 303.419 317.841 303.821C313.114 304.219 308.395 304.454 303.651 304.274C298.309 304.071 292.612 303.331 287.436 301.983C284.418 301.198 281.48 299.987 278.388 299.516C270.44 298.306 261.883 298.926 253.845 298.785C250.02 297.094 245.588 295.381 241.482 294.574C237.122 293.716 232.605 294.728 228.61 292.374Q228.39 292.022 228.192 291.658C227.567 290.497 227.261 289.292 227.711 288.009C228.32 286.273 229.82 284.706 231.313 283.677C240.638 277.247 253.542 283.223 263.942 282.172C268.895 281.672 273.645 279.153 278.083 277.055C270.931 267.285 264.06 258.111 254.131 250.982C249.893 247.012 244.765 243.599 240.206 239.958C233.282 234.428 226.693 228.617 220.166 222.629C218.154 220.547 216.238 218.359 214.289 216.219L160.674 216.242C150.548 216.244 140.366 216.469 130.246 216.179C140.192 215.745 150.286 216.093 160.246 216.099L214.273 216.089Z"/>
	<path fill="#41A782" d="M244.947 219.836C248.626 220.86 260.064 227.44 263.636 229.952C263.312 230.454 262.899 230.891 262.506 231.34C256.851 227.875 249.834 224.323 244.947 219.836Z"/>
	<path fill="#F49A19" d="M46.0447 74.5728C46.4484 76.5071 46.8838 78.3138 46.5158 80.2917C43.7992 80.3677 42.0068 84.2638 39.2601 83.1757C41.3477 80.1894 43.5005 77.1912 46.0447 74.5728Z"/>
	<path fill="#D38808" d="M39.2601 83.1757C42.0068 84.2638 43.7992 80.3677 46.5158 80.2917C45.5375 82.9844 43.8795 84.9058 41.2742 86.1422C39.7709 86.8556 38.1513 87.2224 36.4929 87.3121C37.3029 85.8614 38.1426 84.4157 39.2601 83.1757Z"/>
	<path fill="#F7F7F8" d="M115.329 144.976L115.504 145.012L222.627 145.008L255.926 145.008C261.664 145.001 267.725 144.6 273.426 145.136C275.668 145.347 277.701 145.917 279.369 147.531C280.801 148.917 282.003 150.972 282.391 152.933C283.184 156.939 282.7 161.715 282.696 165.811C282.686 175.363 282.472 184.957 282.702 194.502C282.661 196.725 282.56 198.971 282.616 201.193L282.151 201.767Q278.831 201.72 275.511 201.802C275.491 204.012 275.536 206.243 275.402 208.449C273.954 211.469 272.318 214.27 268.975 215.424C264.844 216.851 245.517 216.156 239.951 216.145C235.369 215.913 223.744 205.846 215.989 204.49C214.472 204.225 212.551 204.237 211.263 205.189C210.612 205.67 210.258 206.382 210.172 207.181C209.836 210.312 212.515 213.725 214.273 216.089L160.246 216.099C150.286 216.093 140.192 215.745 130.246 216.179L127.452 216.21C121.498 215.967 104.831 217.045 100.228 215.352Q99.7896 215.194 99.3694 214.993Q98.9492 214.792 98.5515 214.549Q98.1538 214.306 97.7828 214.024Q97.4118 213.742 97.0712 213.424Q96.7306 213.106 96.4239 212.755Q96.1173 212.405 95.8477 212.024Q95.5782 211.644 95.3485 211.239Q95.1188 210.834 94.9313 210.407C94.3501 209.105 94.0745 207.75 93.9666 206.334C93.4341 199.343 93.8463 192.06 93.849 185.042C93.8517 177.768 93.4778 170.274 93.9059 163.021C93.9981 161.459 94.1274 159.683 94.7154 158.216C95.8979 155.266 98.4331 153.641 101.235 152.436C103.545 152.162 105.871 152.132 108.193 152.085C108.232 149.772 108.312 147.515 108.597 145.217L108.84 145.032L115.329 144.976Z"/>
	<path fill="#9B6A49" d="M127.329 186.822C127.644 187.378 127.877 187.685 128.401 188.055C128.426 189.302 128.937 189.564 129.662 190.535C128.565 192.049 127.514 192.752 125.747 193.396C125.722 193.321 125.681 193.25 125.673 193.172C125.611 192.534 126.291 191.924 126.668 191.447C126.756 190.628 126.623 190.621 126.149 189.988C126.87 188.999 126.75 187.893 127.329 186.822Z"/>
	<path fill="#EAB193" d="M116.659 186.281C117.32 186.871 117.985 187.431 118.533 188.131C120.433 189.279 122.922 189.458 124.293 191.171C124.973 190.888 125.555 190.418 126.149 189.988C126.623 190.621 126.756 190.628 126.668 191.447C126.291 191.924 125.611 192.534 125.673 193.172C125.681 193.25 125.722 193.321 125.747 193.396C124.689 193.451 123.717 193.58 122.72 193.952L117.928 193.781L117.977 194.475C117.785 193.585 116.131 192.032 115.539 191.159C116.085 190.248 116.424 189.557 116.585 188.48C116.478 187.788 116.614 186.984 116.659 186.281Z"/>
	<path fill="#FABFAA" d="M119.071 190.289L119.286 190.505C120.088 191.298 121.682 191.885 122.244 192.648L122.008 193.473C122.249 193.666 122.44 193.817 122.72 193.952L117.928 193.781C117.934 193.75 117.936 193.717 117.947 193.687C118.389 192.528 118.293 191.228 119.071 190.289Z"/>
	<path fill="#577896" d="M128.401 188.055C131.45 190.753 138.013 193.158 141.985 194.449C140.578 198.125 138.491 200.846 135.576 203.473L134.432 204.447C133.58 205.082 132.663 205.658 131.782 206.254L130.58 202.443C129.98 199.801 128.226 197.521 128.511 194.678C128.702 192.775 130.102 193.465 129.662 190.535C128.937 189.564 128.426 189.302 128.401 188.055Z"/>
	<path fill="#4D4982" d="M133.083 195.547L133.437 195.278C134.457 196.613 136.152 198.87 135.928 200.626C135.87 201.082 135.777 201.345 135.459 201.69L135.341 201.729C134.84 199.621 133.769 197.61 133.083 195.547Z"/>
	<path fill="#4D4982" d="M130.58 202.443C130.833 202.067 131.051 202.068 131.462 201.903C132.274 200.22 131.126 196.599 130.916 194.7L131.477 194.236C132.101 196.316 133.727 203.107 134.432 204.447C133.58 205.082 132.663 205.658 131.782 206.254L130.58 202.443Z"/>
	<defs>
		<linearGradient id="gradient_0" gradientUnits="userSpaceOnUse" x1="107.76053" y1="204.41293" x2="116.42744" y2="191.8273">
			<stop offset="0" stop-color="#3F5A77"/>
			<stop offset="1" stop-color="#6481A2"/>
		</linearGradient>
	</defs>
	<path fill="url(#gradient_0)" d="M100.557 197.161C105.589 193.488 111.398 191.773 116.585 188.48C116.424 189.557 116.085 190.248 115.539 191.159C116.131 192.032 117.785 193.585 117.977 194.475C117.533 195.75 117.577 196.559 117.795 197.874C117.583 198.216 117.362 198.533 117.117 198.852L117.343 199.31L118.23 199.33C118.915 201.093 117.493 206.657 117.401 208.866C110.093 207.11 104.761 203.98 100.743 197.467L100.557 197.161Z"/>
	<path fill="#F49A19" d="M125.032 163.525C130.868 164.43 135.959 167.874 139.411 172.61Q139.736 173.062 140.038 173.53Q140.34 173.997 140.62 174.479Q140.899 174.96 141.154 175.455Q141.41 175.95 141.641 176.456Q141.872 176.962 142.079 177.479Q142.285 177.996 142.466 178.523Q142.647 179.049 142.802 179.584Q142.958 180.119 143.087 180.66Q143.216 181.202 143.318 181.749Q143.421 182.296 143.497 182.848Q143.573 183.399 143.622 183.954Q143.671 184.508 143.693 185.065Q143.715 185.621 143.71 186.178Q143.705 186.734 143.673 187.29Q143.641 187.846 143.582 188.399Q143.523 188.953 143.437 189.503Q143.035 192.071 141.985 194.449C138.013 193.158 131.45 190.753 128.401 188.055C127.877 187.685 127.644 187.378 127.329 186.822C128.296 184.925 129.002 183.166 129.45 181.075C129.672 177.847 131.414 173.279 130.23 170.254C129.056 166.907 127.756 165.652 125.032 163.525Z"/>
	<path fill="#827CA7" d="M150.258 181.774C170.878 181.461 191.547 181.758 212.172 181.757L212.025 187.193C204.933 187.393 197.8 187.223 190.703 187.223L150.272 187.24L150.258 181.774Z"/>
	<path fill="#827CA7" d="M150.267 194.118C172.241 194.588 194.275 194.036 216.259 194.21C216.269 195.98 216.412 197.867 216.114 199.614C194.181 199.215 172.204 199.687 150.265 199.568L150.267 194.118Z"/>
	<path fill="#FABFAA" d="M119.592 163.224C121.457 163.099 123.19 163.199 125.032 163.525C127.756 165.652 129.056 166.907 130.23 170.254C131.414 173.279 129.672 177.847 129.45 181.075C129.002 183.166 128.296 184.925 127.329 186.822C126.75 187.893 126.87 188.999 126.149 189.988C125.555 190.418 124.973 190.888 124.293 191.171C122.922 189.458 120.433 189.279 118.533 188.131C117.985 187.431 117.32 186.871 116.659 186.281C116.23 185.337 115.87 184.537 115.781 183.485C115.536 180.537 113.014 180.824 113.479 175.408C113.283 173.19 112.962 170.674 113.758 168.552C114.742 165.929 117.119 164.284 119.592 163.224Z"/>
	<path fill="#EAB193" d="M117.362 168.342C119.546 168.204 121.405 168.383 123.551 168.833C124.329 168.801 125.067 168.793 125.842 168.865C126.011 169.076 126.163 169.216 126.229 169.482C126.199 170.841 126.481 173.065 126.121 174.317L125.43 174.29C125.585 173.407 125.816 172.558 125.599 171.671C124.795 170.577 122.658 170.749 121.043 169.033C120.06 169.345 119.081 169.682 118.074 169.907C117.212 171.18 115.85 172.496 116.206 174.143C116.27 174.438 116.399 174.623 116.594 174.846L117.618 174.867C117.651 174.934 117.683 175.001 117.717 175.068C117.841 175.308 117.979 175.518 118.133 175.739C119.405 175.742 120.47 174.121 121.556 174.957C121.877 175.788 121.882 176.501 121.871 177.384L121.63 177.826C119.956 178.104 118.291 176.85 116.815 177.86L116.175 177.631L116.203 177.343C116.263 176.65 116.351 176.176 116.001 175.56L115.563 175.363L116.077 176.018L115.555 176.118C115.875 177.85 116.344 179.672 116.348 181.436C116.754 181.365 116.901 181.277 117.242 181.065L117.228 181.346L117.435 181.94C117.997 182.202 118.695 182.449 119.187 182.817C118.749 183.233 118.412 183.448 118.43 184.117C118.434 184.256 118.5 184.67 118.518 184.797C118.612 185.476 118.566 185.75 118.282 186.365C116.983 185.697 116.448 184.718 115.781 183.485C115.536 180.537 113.014 180.824 113.479 175.408C113.512 175.456 113.546 175.504 113.579 175.552C114.037 176.227 114.289 177.42 115.025 177.689C115.048 177.697 115.073 177.696 115.097 177.7C114.831 176.079 114.206 173.989 114.297 172.373C114.403 170.482 116.043 169.455 117.362 168.342Z"/>
	<defs>
		<linearGradient id="gradient_1" gradientUnits="userSpaceOnUse" x1="118.29953" y1="163.61943" x2="124.83504" y2="169.98578">
			<stop offset="0" stop-color="#2C1D11"/>
			<stop offset="1" stop-color="#463530"/>
		</linearGradient>
	</defs>
	<path fill="url(#gradient_1)" d="M119.592 163.224C121.457 163.099 123.19 163.199 125.032 163.525C127.756 165.652 129.056 166.907 130.23 170.254L129.856 170.928L129.346 171.047C129.347 172.036 129.337 173.021 129.292 174.009C128.853 174.367 128.588 174.507 128 174.464C127.572 174.431 127.271 174.26 126.814 174.285L126.121 174.317C126.481 173.065 126.199 170.841 126.229 169.482C126.163 169.216 126.011 169.076 125.842 168.865C125.067 168.793 124.329 168.801 123.551 168.833C121.405 168.383 119.546 168.204 117.362 168.342C116.043 169.455 114.403 170.482 114.297 172.373C114.206 173.989 114.831 176.079 115.097 177.7C115.073 177.696 115.048 177.697 115.025 177.689C114.289 177.42 114.037 176.227 113.579 175.552C113.546 175.504 113.512 175.456 113.479 175.408C113.283 173.19 112.962 170.674 113.758 168.552C114.742 165.929 117.119 164.284 119.592 163.224Z"/>
	<path fill="#9F714B" d="M123.551 168.833L123.635 168.384L122.973 167.654C123.108 167.162 123.078 167.177 123.512 166.915L124.035 167.134C124.25 167.878 123.624 168.076 124.243 168.525L125.316 168.366C125.517 167.996 125.647 167.653 125.77 167.251L126.267 167.067L126.643 167.3C126.612 167.834 126.554 168.323 126.721 168.841C127.296 169.267 127.747 169.298 128.448 169.364C128.977 169.896 129.129 170.336 129.346 171.047C129.347 172.036 129.337 173.021 129.292 174.009C128.853 174.367 128.588 174.507 128 174.464C127.572 174.431 127.271 174.26 126.814 174.285L126.121 174.317C126.481 173.065 126.199 170.841 126.229 169.482C126.163 169.216 126.011 169.076 125.842 168.865C125.067 168.793 124.329 168.801 123.551 168.833Z"/>
	<path fill="#E7A994" d="M126.229 169.482C126.867 170.493 127.946 171.833 127.735 173.094C127.656 173.565 127.399 173.941 126.994 174.192C126.936 174.228 126.874 174.254 126.814 174.285L126.121 174.317C126.481 173.065 126.199 170.841 126.229 169.482Z"/>
	<path fill="#C07E6F" d="M130.23 170.254C131.414 173.279 129.672 177.847 129.45 181.075C129.002 183.166 128.296 184.925 127.329 186.822C126.75 187.893 126.87 188.999 126.149 189.988C125.555 190.418 124.973 190.888 124.293 191.171C122.922 189.458 120.433 189.279 118.533 188.131C117.985 187.431 117.32 186.871 116.659 186.281C116.23 185.337 115.87 184.537 115.781 183.485C116.448 184.718 116.983 185.697 118.282 186.365C118.566 185.75 118.612 185.476 118.518 184.797C118.5 184.67 118.434 184.256 118.43 184.117C118.412 183.448 118.749 183.233 119.187 182.817C118.695 182.449 117.997 182.202 117.435 181.94L117.228 181.346L117.242 181.065C117.926 180.48 118.64 179.926 119.34 179.361L119.643 179.015C121.177 179.732 122.24 180.874 123.965 180.928C124.396 179.946 123.427 178.067 123.269 176.979L123.319 176.132C123.76 175.218 124.601 174.816 125.43 174.29L126.121 174.317L126.814 174.285C127.271 174.26 127.572 174.431 128 174.464C128.588 174.507 128.853 174.367 129.292 174.009C129.337 173.021 129.347 172.036 129.346 171.047L129.856 170.928L130.23 170.254Z"/>
	<path fill="#E7A994" d="M125.874 177.282L126.751 177.496C127.49 178.397 128.119 179.084 128.342 180.251C128.062 180.875 127.85 180.85 127.241 181.119C127.012 181.017 126.945 180.997 126.71 180.835C125.794 180.205 124.716 179.276 124.493 178.165C124.884 177.479 125.145 177.527 125.874 177.282Z"/>
	<path fill="#E7A994" d="M119.34 179.361L119.643 179.015C121.177 179.732 122.24 180.874 123.965 180.928C123.361 181.083 123.103 181.133 122.684 181.632C122.91 182.184 122.984 182.129 123.541 182.373L124.387 182.382C124.241 183.285 123.189 183.734 123.051 184.396C122.917 185.037 123.901 186.866 123.94 187.8Q123.468 187.917 122.99 188.003C121.02 188.34 119.801 187.446 118.282 186.365C118.566 185.75 118.612 185.476 118.518 184.797C118.5 184.67 118.434 184.256 118.43 184.117C118.412 183.448 118.749 183.233 119.187 182.817C118.695 182.449 117.997 182.202 117.435 181.94L117.228 181.346L117.242 181.065C117.926 180.48 118.64 179.926 119.34 179.361Z"/>
	<path fill="#C07E6F" d="M119.34 179.361C119.133 180.198 118.981 180.529 119.21 181.376C119.831 181.96 120.66 182.61 121.068 183.362C120.232 183.414 119.929 183.179 119.187 182.817C118.695 182.449 117.997 182.202 117.435 181.94L117.228 181.346L117.242 181.065C117.926 180.48 118.64 179.926 119.34 179.361Z"/>
	<path fill="#714E41" d="M130.23 170.254C131.414 173.279 129.672 177.847 129.45 181.075C129.002 183.166 128.296 184.925 127.329 186.822C126.75 187.893 126.87 188.999 126.149 189.988C125.555 190.418 124.973 190.888 124.293 191.171C122.922 189.458 120.433 189.279 118.533 188.131C117.985 187.431 117.32 186.871 116.659 186.281C116.23 185.337 115.87 184.537 115.781 183.485C116.448 184.718 116.983 185.697 118.282 186.365C119.801 187.446 121.02 188.34 122.99 188.003Q123.468 187.917 123.94 187.8C124.67 187.396 125.318 186.902 125.944 186.352C128.346 184.244 128.644 181.841 128.85 178.828C128.93 178.137 129.128 177.322 128.826 176.678C127.962 176.816 127.11 177.002 126.232 176.919C125.977 176.625 125.721 176.351 125.437 176.085L124.574 176.152C124.245 176.476 123.968 176.796 123.512 176.933C123.433 176.957 123.35 176.964 123.269 176.979L123.319 176.132C123.76 175.218 124.601 174.816 125.43 174.29L126.121 174.317L126.814 174.285C127.271 174.26 127.572 174.431 128 174.464C128.588 174.507 128.853 174.367 129.292 174.009C129.337 173.021 129.347 172.036 129.346 171.047L129.856 170.928L130.23 170.254Z"/>
	<path fill="#F49A19" d="M100.557 197.161C98.5645 193.771 97.6421 189.463 97.7175 185.552Q97.7318 184.979 97.7743 184.407Q97.8168 183.836 97.8873 183.267Q97.9578 182.698 98.0561 182.133Q98.1545 181.568 98.2805 181.009Q98.4065 180.45 98.5599 179.898Q98.7132 179.345 98.8935 178.801Q99.0738 178.257 99.2806 177.722Q99.4874 177.188 99.7202 176.664Q99.953 176.14 100.211 175.628Q100.47 175.117 100.753 174.618Q101.036 174.12 101.343 173.636Q101.65 173.152 101.981 172.684Q102.312 172.216 102.665 171.764Q103.018 171.313 103.393 170.879Q103.768 170.446 104.164 170.031Q104.56 169.617 104.976 169.222C108.827 165.6 114.247 163.058 119.592 163.224C117.119 164.284 114.742 165.929 113.758 168.552C112.962 170.674 113.283 173.19 113.479 175.408C113.014 180.824 115.536 180.537 115.781 183.485C115.87 184.537 116.23 185.337 116.659 186.281C116.614 186.984 116.478 187.788 116.585 188.48C111.398 191.773 105.589 193.488 100.557 197.161Z"/>
	<path fill="#827CA7" d="M150.269 168.607L241.754 168.679L241.738 174.054C211.267 174.215 180.737 174.402 150.269 174.046L150.269 168.607Z"/>
	<path fill="#C0BED1" d="M115.329 144.976L115.504 145.012L222.627 145.008L255.926 145.008C261.664 145.001 267.725 144.6 273.426 145.136C275.668 145.347 277.701 145.917 279.369 147.531C280.801 148.917 282.003 150.972 282.391 152.933C283.184 156.939 282.7 161.715 282.696 165.811C282.686 175.363 282.472 184.957 282.702 194.502C282.661 196.725 282.56 198.971 282.616 201.193L282.151 201.767Q278.831 201.72 275.511 201.802L275.51 194.521L275.538 172.884C275.541 168.971 275.912 164.619 275.239 160.764C274.907 158.862 274.141 156.766 272.848 155.304C271.465 153.74 269.392 152.714 267.346 152.388C262.915 151.682 257.978 152.088 253.482 152.095L228.757 152.123L152.686 152.113L128.697 152.112C124.284 152.119 119.824 152.3 115.418 152.085Q111.806 152.139 108.193 152.085C108.232 149.772 108.312 147.515 108.597 145.217L108.84 145.032L115.329 144.976Z"/>
	<defs>
		<linearGradient id="gradient_2" gradientUnits="userSpaceOnUse" x1="160.50238" y1="212.20097" x2="176.24181" y2="329.36688">
			<stop offset="0" stop-color="#0F8865"/>
			<stop offset="1" stop-color="#17A360"/>
		</linearGradient>
	</defs>
	<path fill="url(#gradient_2)" d="M127.452 216.21L130.246 216.179C140.366 216.469 150.548 216.244 160.674 216.242L214.289 216.219C216.238 218.359 218.154 220.547 220.166 222.629C226.693 228.617 233.282 234.428 240.206 239.958C244.765 243.599 249.893 247.012 254.131 250.982C264.06 258.111 270.931 267.285 278.083 277.055C273.645 279.153 268.895 281.672 263.942 282.172C253.542 283.223 240.638 277.247 231.313 283.677C229.82 284.706 228.32 286.273 227.711 288.009C227.261 289.292 227.567 290.497 228.192 291.658Q228.39 292.022 228.61 292.374C232.605 294.728 237.122 293.716 241.482 294.574C245.588 295.381 250.02 297.094 253.845 298.785C244.244 303.814 234.772 309.12 225.257 314.308C208.183 323.616 196.954 330.767 176.609 327.452C171.611 326.637 166.863 325.066 162.284 322.922C156.564 320.243 151.054 316.965 145.509 313.935L116.985 298.381L82.0657 279.308C76.1747 276.097 69.9959 273.112 64.2758 269.627C62.8165 268.737 61.4156 267.74 60.4229 266.323Q60.1878 265.981 59.9876 265.618Q59.7873 265.255 59.6238 264.874Q59.4603 264.493 59.3352 264.098Q59.2101 263.703 59.1246 263.297Q59.0391 262.892 58.994 262.479Q58.9489 262.067 58.9446 261.653Q58.9404 261.238 58.977 260.825Q59.0137 260.412 59.0909 260.005C60.0224 255.089 65.3127 252.794 69.194 250.559C71.8957 249.002 74.6137 247.486 77.2184 245.769C79.107 248.466 80.9905 250.904 84.4418 251.498C86.2609 251.81 88.1557 251.538 89.951 251.18C91.9261 250.746 93.8793 249.343 95.2377 247.88C99.1722 243.644 100.043 237.982 99.8328 232.41C102.239 231.74 125.854 217.75 127.452 216.21Z"/>
	<path fill="#41A782" d="M220.166 222.629C226.693 228.617 233.282 234.428 240.206 239.958C244.765 243.599 249.893 247.012 254.131 250.982C253.565 256.894 255.766 263.51 251.215 268.335C248.973 270.71 246.621 271.205 243.464 271.324C235.172 271.637 226.755 271.342 218.453 271.341L169.62 271.348L139.058 271.333C133.954 271.333 128.609 271.717 123.537 271.214C121.352 270.997 119.58 270.429 117.945 268.875C115.176 266.243 114.583 263.367 114.49 259.675C114.342 253.738 114.493 247.763 114.503 241.822C114.508 238.281 114.087 234.304 114.755 230.832C115.126 228.903 115.929 227.062 117.314 225.645C118.979 223.941 121.145 223.101 123.474 222.798C126.758 222.371 130.33 222.659 133.642 222.675L151.347 222.683C174.27 222.674 197.25 223.065 220.166 222.629Z"/>
	<path fill="#87CCB1" d="M160.591 244.313C165.217 244.498 169.883 244.376 174.515 244.372C185.921 244.364 197.355 244.185 208.757 244.453C208.766 245.735 209.143 248.826 208.485 249.835Q184.587 249.755 160.69 249.97Q160.563 247.143 160.591 244.313Z"/>
	<path fill="#87CCB1" d="M160.603 255.337C166.722 255.769 173.178 255.357 179.339 255.355C190.778 255.35 202.229 255.473 213.666 255.355L213.67 260.923C207.808 260.485 201.603 260.877 195.708 260.877Q178.191 260.816 160.674 260.968C160.58 259.095 160.61 257.212 160.603 255.337Z"/>
	<path fill="#87CCB1" d="M160.603 233.322C166.993 233.561 173.451 233.394 179.848 233.389C194.063 233.379 208.291 233.237 222.505 233.42C222.517 235.202 222.671 237.111 222.397 238.872C212.138 238.708 201.861 238.863 191.601 238.878Q176.146 238.754 160.693 238.976C160.581 237.097 160.613 235.204 160.603 233.322Z"/>
	<defs>
		<linearGradient id="gradient_3" gradientUnits="userSpaceOnUse" x1="153.71312" y1="253.28963" x2="121.57387" y2="237.7915">
			<stop offset="0" stop-color="#7997A6"/>
			<stop offset="1" stop-color="#8DB2BB"/>
		</linearGradient>
	</defs>
	<path fill="url(#gradient_3)" d="M121.606 256.591C119.075 252.701 118.382 247.685 119.309 243.185Q119.485 242.313 119.747 241.463Q120.01 240.613 120.356 239.794Q120.703 238.975 121.13 238.195Q121.558 237.414 122.061 236.681Q122.565 235.948 123.14 235.269Q123.715 234.591 124.355 233.973Q124.996 233.356 125.695 232.806Q126.394 232.256 127.145 231.779Q127.921 231.28 128.743 230.861Q129.564 230.442 130.423 230.107Q131.283 229.772 132.171 229.524Q133.059 229.275 133.968 229.117Q134.876 228.958 135.796 228.89Q136.716 228.822 137.638 228.846Q138.56 228.87 139.475 228.986Q140.39 229.101 141.289 229.307Q142.164 229.507 143.015 229.793Q143.866 230.078 144.685 230.445Q145.504 230.813 146.283 231.259Q147.062 231.706 147.793 232.226Q148.524 232.747 149.201 233.337Q149.877 233.927 150.492 234.581Q151.108 235.235 151.656 235.946Q152.204 236.657 152.679 237.418Q153.156 238.191 153.553 239.008Q153.95 239.825 154.264 240.677Q154.577 241.53 154.805 242.409Q155.032 243.288 155.17 244.186Q155.309 245.084 155.357 245.991Q155.405 246.898 155.363 247.805Q155.32 248.712 155.187 249.611Q155.055 250.509 154.833 251.39C154.396 253.186 153.781 254.918 152.724 256.446C151.158 259.057 149.121 261.118 146.5 262.684Q145.737 263.144 144.932 263.527Q144.127 263.91 143.289 264.213Q142.451 264.515 141.587 264.735Q140.723 264.954 139.842 265.088Q138.961 265.222 138.071 265.269Q137.181 265.317 136.29 265.277Q135.4 265.237 134.518 265.111Q133.636 264.984 132.77 264.772C128.179 263.606 124.018 260.696 121.606 256.591Z"/>
	<path fill="#35602C" d="M132.705 232.646C134.794 231.46 137.312 230.838 139.711 231.46C140.063 231.551 140.283 231.705 140.569 231.913C140.776 232.065 140.981 232.207 141.184 232.366C142.445 233.495 143.466 234.418 143.577 236.226C143.653 237.449 143.27 238.342 142.777 239.426L142.372 239.504C141.932 239.073 141.589 238.686 141.264 238.162C140.515 238.747 139.88 238.742 138.958 238.633Q138.753 238.608 138.55 238.575L138.783 238.258C138.327 237.463 138.116 236.932 138.096 236.011L134.563 235.147C133.438 236.043 132.513 236.91 131.799 238.183L130.494 240.016C130.163 239.201 129.695 238.488 129.231 237.745C130.038 236.244 131.222 233.504 132.705 232.646Z"/>
	<path fill="#96A27F" d="M138.096 236.011C139.328 236.586 140.457 237.015 141.264 238.162C140.515 238.747 139.88 238.742 138.958 238.633Q138.753 238.608 138.55 238.575L138.783 238.258C138.327 237.463 138.116 236.932 138.096 236.011Z"/>
	<path fill="#96A27F" d="M131.799 238.183C132.513 236.91 133.438 236.043 134.563 235.147L138.096 236.011C138.116 236.932 138.327 237.463 138.783 238.258L138.55 238.575Q138.753 238.608 138.958 238.633C139.88 238.742 140.515 238.747 141.264 238.162C141.589 238.686 141.932 239.073 142.372 239.504L142.777 239.426C143.315 241.058 143.609 241.997 142.81 243.635C142.621 244.021 142.406 244.378 142.172 244.738L141.48 247.632L141.289 247.776C139.563 249.096 138.861 250.639 136.478 250.85L134.297 249.987C133.9 249.428 133.339 249.029 132.812 248.598C132.321 247.493 131.738 246.419 131.188 245.341C130.472 243.534 130.085 241.957 130.494 240.016L131.799 238.183Z"/>
	<path fill="#9FAC91" d="M133.26 244.411C134.078 243.53 135.528 241.007 136.468 240.655C136.975 241.102 137.324 241.229 137.979 241.379L139.177 241.501C139.68 242.191 139.919 242.39 139.989 243.259C139.703 243.822 139.743 243.874 139.164 244.1C138.619 243.949 138.392 243.866 138.099 243.357C137.964 243.122 137.896 242.95 137.79 242.709C137.424 242.974 137.214 243.121 137.032 243.541C136.498 243.789 135.236 244.143 135.125 244.764C135.107 244.862 135.127 244.963 135.127 245.062C135.977 245.037 136.653 244.942 137.375 245.478C137.46 245.944 137.553 245.895 137.255 246.316C136.94 246.762 136.541 247.012 136.086 247.296C135.558 246.871 135.103 246.48 134.682 245.948L134.781 245.283C134.285 244.944 133.801 244.672 133.26 244.411Z"/>
	<path fill="#35602C" d="M140.806 245.054C141.228 244.789 141.688 244.786 142.172 244.738L141.48 247.632L141.289 247.776C139.563 249.096 138.861 250.639 136.478 250.85L134.297 249.987C133.9 249.428 133.339 249.029 132.812 248.598C132.321 247.493 131.738 246.419 131.188 245.341L131.763 245.288C132.352 246.694 133.7 248.346 135.105 248.973C135.82 249.292 136.55 249.363 137.283 249.058C137.643 248.908 137.958 248.664 138.263 248.426C139.237 247.375 140.095 246.301 140.806 245.054Z"/>
	<path fill="#6C846A" d="M141.264 238.162C141.589 238.686 141.932 239.073 142.372 239.504L142.777 239.426C143.315 241.058 143.609 241.997 142.81 243.635C142.621 244.021 142.406 244.378 142.172 244.738C141.688 244.786 141.228 244.789 140.806 245.054C140.846 243.771 140.902 242.676 141.332 241.451C141.25 241.386 141.176 241.31 141.087 241.256C140.566 240.94 139.704 241.336 139.177 241.501L137.979 241.379C137.324 241.229 136.975 241.102 136.468 240.655C137.004 239.413 137.293 239.112 138.55 238.575Q138.753 238.608 138.958 238.633C139.88 238.742 140.515 238.747 141.264 238.162Z"/>
	<path fill="#A0B696" d="M131.799 238.183C132.513 236.91 133.438 236.043 134.563 235.147L138.096 236.011C138.116 236.932 138.327 237.463 138.783 238.258L138.55 238.575C137.293 239.112 137.004 239.413 136.468 240.655C135.528 241.007 134.078 243.53 133.26 244.411C132.572 244.519 132.443 244.51 131.791 244.267C131.752 243.615 131.768 243.033 131.849 242.384C132.501 241.914 132.844 242.048 133.632 242.069L132.989 241.704C132.497 240.703 131.892 239.782 132.042 238.635L131.799 238.183Z"/>
	<path fill="#6C846A" d="M132.042 238.635C132.813 238.717 134.132 238.732 134.675 239.359C134.999 239.735 135.102 239.939 135.001 240.429C134.859 241.115 134.155 241.667 133.632 242.069L132.989 241.704C132.497 240.703 131.892 239.782 132.042 238.635Z"/>
	<path fill="#87CCB1" d="M141.48 247.632C141.461 249.337 141.247 250.302 142.478 251.608L143.327 252.158C145.936 252.555 150.924 254.549 152.724 256.446C151.158 259.057 149.121 261.118 146.5 262.684Q145.737 263.144 144.932 263.527Q144.127 263.91 143.289 264.213Q142.451 264.515 141.587 264.735Q140.723 264.954 139.842 265.088Q138.961 265.222 138.071 265.269Q137.181 265.317 136.29 265.277Q135.4 265.237 134.518 265.111Q133.636 264.984 132.77 264.772C128.179 263.606 124.018 260.696 121.606 256.591C123.962 255.241 128.876 252.018 131.473 252.018C131.822 251.763 132.18 251.502 132.482 251.191C133.038 250.62 132.842 249.337 132.812 248.598C133.339 249.029 133.9 249.428 134.297 249.987L136.478 250.85C138.861 250.639 139.563 249.096 141.289 247.776L141.48 247.632Z"/>
	<path fill="#A0B696" d="M141.48 247.632C141.461 249.337 141.247 250.302 142.478 251.608L143.327 252.158C142.946 252.843 142.591 253.621 142.07 254.208L141.73 254.564C140.329 255.691 138.571 256.062 136.86 256.467C136.69 256.403 136.52 256.34 136.351 256.272C134.016 255.33 132.507 254.439 131.473 252.018C131.822 251.763 132.18 251.502 132.482 251.191C133.038 250.62 132.842 249.337 132.812 248.598C133.339 249.029 133.9 249.428 134.297 249.987L136.478 250.85C138.861 250.639 139.563 249.096 141.289 247.776L141.48 247.632Z"/>
	<path fill="#96A27F" d="M141.48 247.632C141.461 249.337 141.247 250.302 142.478 251.608L143.327 252.158C142.946 252.843 142.591 253.621 142.07 254.208L141.73 254.564C141.376 254.335 141.132 254.203 140.709 254.138C140.225 254.063 139.752 254.018 139.281 253.88C136.791 253.152 135.535 252.258 134.297 249.987L136.478 250.85C138.861 250.639 139.563 249.096 141.289 247.776L141.48 247.632Z"/>
	<path fill="#6C846A" d="M141.48 247.632C141.461 249.337 141.247 250.302 142.478 251.608L143.327 252.158C142.946 252.843 142.591 253.621 142.07 254.208C141.98 254.151 141.888 254.095 141.799 254.035C140.819 253.373 140.809 252.671 140.648 251.584L140.591 251.187L139.992 250.808C138.608 251.483 137.918 251.198 136.478 250.85C138.861 250.639 139.563 249.096 141.289 247.776L141.48 247.632Z"/>
</svg>
