<?xml version="1.0" standalone="no"?>
<!DOCTYPE svg PUBLIC "-//W3C//DTD SVG 20010904//EN"
 "http://www.w3.org/TR/2001/REC-SVG-20010904/DTD/svg10.dtd">
<svg version="1.0" xmlns="http://www.w3.org/2000/svg"
 width="407.000000pt" height="407.000000pt" viewBox="0 0 407.000000 407.000000"
 preserveAspectRatio="xMidYMid meet">

<g transform="translate(0.000000,407.000000) scale(0.100000,-0.100000)"
fill="#000000" stroke="none">
<path d="M1875 4064 c-304 -35 -518 -95 -745 -209 -214 -108 -364 -217 -543
-396 -119 -120 -127 -131 -127 -167 0 -42 -24 -73 -72 -91 -33 -13 -95 -106
-172 -258 -222 -444 -273 -949 -146 -1429 288 -1084 1402 -1732 2486 -1444
1084 288 1732 1402 1444 2486 -215 808 -901 1402 -1735 1499 -116 13 -310 18
-390 9z m1528 -635 c47 -25 50 -68 8 -110 -24 -23 -38 -29 -74 -29 -95 0 -112
97 -24 135 40 18 62 18 90 4z m-600 -153 c100 -66 11 -186 -138 -186 -173 0
-200 136 -39 196 48 18 142 12 177 -10z m-1417 -83 c16 -17 16 -18 1 -21 -9
-2 -17 -12 -17 -23 0 -14 -7 -19 -25 -19 -14 0 -25 5 -25 10 0 6 9 10 20 10
24 0 26 16 4 28 -18 10 -11 32 11 32 7 0 21 -8 31 -17z m14 -63 c0 -5 -4 -10
-10 -10 -5 0 -10 5 -10 10 0 6 5 10 10 10 6 0 10 -4 10 -10z m-45 -48 c-3 -3
-11 0 -18 7 -9 10 -8 11 6 5 10 -3 15 -9 12 -12z m1737 -80 c58 -57 32 -142
-43 -142 -124 0 -188 115 -94 169 35 20 104 7 137 -27z m-1842 -44 c0 -19 -2
-20 -10 -8 -13 19 -13 30 0 30 6 0 10 -10 10 -22z m-479 -122 c66 -108 -52
-302 -162 -264 -33 11 -59 56 -59 101 0 46 33 120 71 158 56 56 117 59 150 5z
m2095 -179 c24 -28 24 -28 24 -278 l0 -249 -30 0 c-27 0 -30 -3 -30 -32 0 -40
-31 -94 -59 -103 -11 -3 -23 -14 -26 -24 -3 -10 -15 -27 -26 -37 -18 -16 -43
-20 -175 -24 l-155 -5 117 -72 117 -72 45 39 c45 40 94 57 134 47 14 -4 31 2
50 19 23 19 41 24 83 24 30 0 57 5 60 10 3 6 19 10 35 10 36 0 88 -41 314
-249 93 -86 193 -169 222 -186 29 -16 92 -54 139 -83 79 -50 97 -72 58 -72
-32 0 -106 -43 -163 -96 -72 -67 -103 -133 -98 -210 1 -30 1 -54 0 -54 -2 0
-17 9 -32 20 -16 12 -53 32 -82 45 -51 23 -57 24 -158 13 -128 -13 -286 -5
-360 17 -35 11 -111 20 -210 24 -101 4 -163 11 -179 20 -13 7 -63 18 -110 25
-81 10 -86 13 -96 40 -8 25 -6 31 22 56 50 45 90 51 229 38 117 -11 124 -11
183 11 33 13 61 28 61 33 0 19 -129 175 -179 218 l-51 42 0 -71 c0 -64 -3 -74
-29 -103 l-29 -33 -589 -3 c-323 -2 -611 0 -640 3 -37 4 -59 14 -77 32 l-26
26 0 187 0 188 31 26 31 26 496 0 496 0 -34 35 -34 35 -569 0 -569 0 -29 29
-29 29 0 252 c0 205 3 256 15 280 9 17 20 30 25 30 5 0 29 20 53 45 39 39 50
45 86 45 40 0 41 1 41 35 l0 35 841 -2 841 -3 24 -28z m-2359 -543 c89 -66 56
-154 -57 -154 -114 0 -194 104 -122 160 23 19 37 21 89 18 43 -3 72 -10 90
-24z m413 -239 c55 -29 91 -137 70 -213 -21 -81 -104 -130 -167 -100 -67 31
-97 182 -53 268 11 21 28 44 37 49 26 15 80 13 113 -4z"/>
<path d="M1161 2414 c-25 -21 -31 -34 -31 -64 0 -21 5 -42 10 -45 6 -4 10 8
10 30 0 28 5 37 23 44 27 10 89 2 99 -13 12 -18 9 -36 -6 -36 -7 0 -19 -7 -26
-15 -11 -13 -8 -15 19 -15 25 0 31 -4 32 -22 1 -13 5 -1 11 26 11 61 -3 101
-43 121 -40 21 -63 19 -98 -11z"/>
<path d="M1510 2355 l0 -25 450 0 450 0 0 25 0 25 -450 0 -450 0 0 -25z"/>
<path d="M1180 2310 c-12 -8 -11 -10 8 -10 12 0 22 5 22 10 0 13 -11 13 -30 0z"/>
<path d="M1237 2267 c-3 -7 -1 -20 3 -28 7 -11 10 -10 16 4 4 10 2 23 -3 28
-7 7 -12 6 -16 -4z"/>
<path d="M1510 2225 l0 -25 305 0 305 0 0 25 0 25 -305 0 -305 0 0 -25z"/>
<path d="M1261 2215 c-27 -29 -42 -31 -79 -8 l-27 17 18 -21 c16 -18 49 -33
82 -38 6 0 9 -7 7 -13 -2 -10 3 -10 19 -2 20 11 21 10 14 -20 -4 -17 -2 -43 3
-58 6 -15 13 -36 16 -46 6 -18 10 -16 42 15 20 19 42 46 49 60 14 26 13 26
-43 49 -75 30 -85 39 -77 67 7 29 6 28 -24 -2z"/>
<path d="M1151 2173 c0 -7 -8 -13 -17 -13 -9 0 -12 -5 -8 -12 5 -7 3 -8 -5 -3
-14 8 -111 -32 -111 -46 0 -30 104 -109 144 -109 26 0 36 66 14 88 -9 9 -9 12
1 12 7 0 9 5 5 12 -4 7 -11 28 -15 48 -4 19 -7 29 -8 23z"/>
<path d="M1510 2100 c0 -20 7 -20 325 -20 318 0 325 0 325 20 0 20 -7 20 -325
20 -318 0 -325 0 -325 -20z"/>
<path d="M1320 1731 c-20 -20 -28 -35 -23 -47 5 -15 9 -13 26 10 20 27 44 28
76 2 11 -9 9 -12 -10 -17 l-24 -7 23 -7 c26 -9 28 -32 6 -63 -15 -22 -42 -29
-60 -14 -5 4 -1 -1 9 -10 39 -37 69 -11 85 72 10 48 9 58 -7 80 -27 37 -65 38
-101 1z"/>
<path d="M1360 1626 c0 -2 7 -7 16 -10 8 -3 12 -2 9 4 -6 10 -25 14 -25 6z"/>
</g>
</svg>
